<svg width="30" height="30" viewBox="0 0 30 30" fill="none" xmlns="http://www.w3.org/2000/svg">
<rect width="30" height="30" fill="white" fill-opacity="0.01"/>
<path d="M17.25 4.5H12.75C11.9217 4.5 11.25 5.17172 11.25 6V10.5C11.25 11.3283 11.9217 12 12.75 12H17.25C18.0783 12 18.75 11.3283 18.75 10.5V6C18.75 5.17172 18.0783 4.5 17.25 4.5ZM9.75 7.125H5.77734C5.33203 6.02625 4.25813 5.25 3 5.25C1.34344 5.25 0 6.59297 0 8.25C0 9.90703 1.34344 11.25 3 11.25C4.25813 11.25 5.33203 10.4737 5.77734 9.375H9.51469C6.91922 10.8994 5.02125 13.4681 4.38 16.5H6.69562C7.22531 14.5495 8.41922 12.8808 10.0256 11.7394C9.85219 11.3606 9.75 10.943 9.75 10.5V7.125ZM7.5 18H3C2.17172 18 1.5 18.6717 1.5 19.5V24C1.5 24.8283 2.17172 25.5 3 25.5H7.5C8.32828 25.5 9 24.8283 9 24V19.5C9 18.6717 8.32828 18 7.5 18ZM27 5.25C25.7419 5.25 24.668 6.02625 24.2227 7.125H20.25V10.5C20.25 10.943 20.1473 11.3606 19.9744 11.7394C21.5808 12.8808 22.7747 14.5495 23.3044 16.5H25.62C24.9787 13.4681 23.0808 10.8994 20.4853 9.375H24.2227C24.668 10.4737 25.7419 11.25 27 11.25C28.6566 11.25 30 9.90703 30 8.25C30 6.59297 28.6566 5.25 27 5.25ZM27 18H22.5C21.6717 18 21 18.6717 21 19.5V24C21 24.8283 21.6717 25.5 22.5 25.5H27C27.8283 25.5 28.5 24.8283 28.5 24V19.5C28.5 18.6717 27.8283 18 27 18Z" fill="#381CE8"/>
</svg>
