<svg width="178" height="125" viewBox="0 0 178 125" fill="none" xmlns="http://www.w3.org/2000/svg">
<path d="M102.268 0H75.5893C70.6788 0 66.6965 3.98233 66.6965 8.89286V35.5714C66.6965 40.482 70.6788 44.4643 75.5893 44.4643H102.268C107.178 44.4643 111.161 40.482 111.161 35.5714V8.89286C111.161 3.98233 107.178 0 102.268 0ZM57.8036 15.5625H34.2514C31.6113 9.04848 25.2446 4.44643 17.7857 4.44643C7.96467 4.44643 0 12.4083 0 22.2321C0 32.056 7.96467 40.0179 17.7857 40.0179C25.2446 40.0179 31.6113 35.4158 34.2514 28.9018H56.4085C41.0211 37.9392 29.7689 53.1682 25.9672 71.1429H39.6955C42.8358 59.5794 49.914 49.6861 59.4377 42.9192C58.4094 40.6737 57.8036 38.1976 57.8036 35.5714V15.5625ZM44.4643 80.0357H17.7857C12.8752 80.0357 8.89286 84.0181 8.89286 88.9286V115.607C8.89286 120.518 12.8752 124.5 17.7857 124.5H44.4643C49.3748 124.5 53.3572 120.518 53.3572 115.607V88.9286C53.3572 84.0181 49.3748 80.0357 44.4643 80.0357ZM160.072 4.44643C152.613 4.44643 146.246 9.04848 143.606 15.5625H120.054V35.5714C120.054 38.1976 119.445 40.6737 118.42 42.9192C127.943 49.6861 135.021 59.5794 138.162 71.1429H151.89C148.088 53.1682 136.836 37.9392 121.449 28.9018H143.606C146.246 35.4158 152.613 40.0179 160.072 40.0179C169.893 40.0179 177.857 32.056 177.857 22.2321C177.857 12.4083 169.893 4.44643 160.072 4.44643ZM160.072 80.0357H133.393C128.482 80.0357 124.5 84.0181 124.5 88.9286V115.607C124.5 120.518 128.482 124.5 133.393 124.5H160.072C164.982 124.5 168.964 120.518 168.964 115.607V88.9286C168.964 84.0181 164.982 80.0357 160.072 80.0357Z" fill="#381CE8"/>
</svg>
